<?xml version="1.0" standalone="no"?>
<!DOCTYPE svg PUBLIC "-//W3C//DTD SVG 20010904//EN"
 "http://www.w3.org/TR/2001/REC-SVG-20010904/DTD/svg10.dtd">
<svg version="1.0" xmlns="http://www.w3.org/2000/svg"
 width="512.000000pt" height="512.000000pt" viewBox="0 0 512.000000 512.000000"
 preserveAspectRatio="xMidYMid meet">
<metadata>
Created by potrace 1.16, written by Peter Selinger 2001-2019
</metadata>
<g transform="translate(0.000000,512.000000) scale(0.100000,-0.100000)"
fill="#FFFFFF" stroke="none">
<path d="M1410 5105 c-110 -31 -190 -99 -239 -204 -22 -48 -26 -69 -26 -146 0
-76 5 -99 27 -147 112 -240 426 -286 600 -87 l52 59 203 0 203 0 0 -175 0
-175 -155 0 -155 0 0 -100 0 -100 485 0 485 0 0 100 0 99 -147 3 -148 3 0 170
0 170 205 3 205 2 35 -47 c38 -52 120 -107 185 -125 118 -32 248 0 340 83 77
71 108 139 113 248 5 111 -18 178 -90 257 -140 153 -368 162 -510 20 -29 -29
-59 -60 -66 -69 -12 -16 -61 -17 -599 -17 l-586 0 -54 60 c-97 107 -235 150
-363 115z"/>
<path d="M1821 3690 c-57 -137 -109 -254 -115 -259 -6 -4 -35 -11 -64 -15
-144 -18 -364 -108 -509 -208 -160 -109 -325 -301 -416 -483 -72 -144 -127
-360 -127 -497 l0 -58 358 0 357 0 13 77 c36 229 210 409 439 455 l52 11 80
-75 c143 -135 302 -198 499 -198 123 0 206 18 309 67 79 37 208 133 236 176
l17 27 630 0 630 0 0 -190 0 -190 240 0 240 0 0 745 0 745 -240 0 -240 0 0
-190 0 -190 -575 0 -576 0 -19 45 c-25 58 -127 375 -136 421 l-6 34 -487 0
-487 0 -103 -250z"/>
<path d="M430 1830 l0 -270 490 0 490 0 0 270 0 270 -490 0 -490 0 0 -270z"/>
<path d="M784 838 c-87 -166 -167 -322 -176 -345 -74 -184 27 -403 217 -470
81 -29 187 -23 266 14 79 37 144 100 178 173 33 70 41 196 17 265 -11 33 -323
639 -340 662 -1 2 -74 -133 -162 -299z"/>
</g>
</svg>
